# xmcd CD database file
#
# Track frame offsets:
#	150
#	13116
#	24726
#	35976
#	50319
#	62919
#	76389
#	92493
#	106442
#	123187
#	135522
#	147484
#	160598
#	172327
#	181024
#	194326
#	205784
#	216876
#	228823
#	238903
#	251033
#	267156
#	284937
#	302961
#	320202
#	333239
#
# Disc length: 4684 seconds
#
# Revision: 2
# Processed by: cddbd v1.5.2PL0 Copyright (c) Steve Scherf et al.
# Submitted via: CDex 1.51
#
DISCID=8a124a1a
DTITLE=Various Artist - XTA-21
DYEAR=1900
DGENRE=Blues
TTITLE0=Frankie Laine/Granada
TTITLE1=Frankie Laine/Answer Me
TTITLE2=Frankie Laine/Hey Joe
TTITLE3=Frankie Laine/Rain Rain Rain
TTITLE4=Lonnie Donegan/Does Your Chewing Gum Lose It's Flavor
TTITLE5=Lonnie Donegan/Have A Drink On Me
TTITLE6=Lonnie Donegan/My Old Man's A Dustman
TTITLE7=Matt Monro/Walk Away
TTITLE8=Matt Monro/If I Never Sing Another Song
TTITLE9=Val Doonigan/Elusive Butterfly
TTITLE10=Val Doonigan/Walk Tall
TTITLE11=Val Doonigan/What Would I Be
TTITLE12=Jimmy Rogers/English Country Garden
TTITLE13=John Loudermilk/Language Of Love
TTITLE14=Johnnie Ray/Just Walking In The Rain
TTITLE15=Johnnie Ray/Somebody Stole My Gal
TTITLE16=Johnny Duncan/Last Train To San Fernando
TTITLE17=Johnny Tilotson/Poetry In Motion
TTITLE18=Johnny Layton/Wild Wind
TTITLE19=Freddie And The Dreamers/I Understand
TTITLE20=Don Williams/I Recall A Gypsy Woman
TTITLE21=Rodger Whittaker/The Last Farewell
TTITLE22=Chas and Dave/Gercha
TTITLE23=Tony Christie/I Did It For Maria
TTITLE24=Tony Christie/Is This The Way To Amarillo
TTITLE25=Jimmy Nail/Crocodile Shoes
EXTD=
EXTT0=
EXTT1=
EXTT2=
EXTT3=
EXTT4=
EXTT5=
EXTT6=
EXTT7=
EXTT8=
EXTT9=
EXTT10=
EXTT11=
EXTT12=
EXTT13=
EXTT14=
EXTT15=
EXTT16=
EXTT17=
EXTT18=
EXTT19=
EXTT20=
EXTT21=
EXTT22=
EXTT23=
EXTT24=
EXTT25=
PLAYORDER=
